<?xml version="1.0" standalone="no"?>
<!DOCTYPE svg PUBLIC "-//W3C//DTD SVG 20010904//EN"
 "http://www.w3.org/TR/2001/REC-SVG-20010904/DTD/svg10.dtd">
<svg version="1.0" xmlns="http://www.w3.org/2000/svg"
 width="97.000000pt" height="97.000000pt" viewBox="0 0 97.000000 97.000000"
 preserveAspectRatio="xMidYMid meet">
<metadata>
Created by potrace 1.11, written by Peter Selinger 2001-2013
</metadata>
<g transform="translate(0.000000,97.000000) scale(0.100000,-0.100000)"
fill="#000000" stroke="none">
<path d="M355 828 c-48 -25 -81 -61 -97 -105 -14 -40 -22 -42 -25 -7 0 15 -8
33 -16 41 -28 28 -97 13 -97 -22 0 -7 -7 -18 -15 -25 -12 -10 -13 -15 -4 -21
25 -15 18 -82 -13 -132 -17 -26 -28 -50 -25 -53 3 -3 13 8 22 26 25 49 27 31
5 -51 -25 -94 -25 -105 1 -112 15 -4 25 2 40 26 10 18 21 37 22 42 2 6 13 2
25 -8 16 -15 25 -16 40 -8 39 21 55 4 48 -54 -4 -44 -2 -55 14 -70 11 -10 21
-14 21 -9 1 5 2 14 3 19 1 6 6 29 10 53 8 41 10 42 46 42 21 0 57 7 80 15 53
19 55 19 39 -1 -13 -16 -64 -45 -76 -43 -16 2 -13 -20 4 -29 23 -13 38 -2 86
61 27 36 37 43 37 29 0 -27 31 -38 47 -16 7 10 13 22 13 28 0 6 7 0 16 -12 19
-28 37 -28 57 1 11 16 9 -2 -9 -63 -13 -47 -24 -93 -24 -102 0 -16 -3 -16 -37
-1 -90 37 -273 -32 -273 -103 0 -35 15 -37 49 -5 79 74 227 98 267 43 16 -22
21 -16 29 38 9 65 29 140 70 260 33 99 34 106 18 118 -15 11 -19 10 -27 -8 -6
-12 -15 -19 -24 -15 -7 3 -18 5 -24 5 -6 0 -3 9 7 20 18 20 17 20 -106 21 -98
1 -117 3 -90 11 18 5 43 16 55 24 32 20 62 82 65 132 l3 42 -109 0 c-90 -1
-115 -4 -148 -22z m-183 -137 c-4 -11 -7 -11 -10 -3 -2 7 -7 10 -11 8 -4 -3
-7 4 -7 14 0 10 4 16 8 14 4 -3 8 1 9 8 0 7 4 4 8 -7 5 -11 6 -27 3 -34z m523
-143 c-32 -76 -56 -118 -64 -113 -19 11 22 114 54 137 20 15 24 7 10 -24z
m-100 -57 c-3 -16 -13 -35 -21 -42 -12 -10 -13 -6 -8 22 7 35 23 63 31 55 3
-3 2 -18 -2 -35z m-440 -12 c-5 -25 -34 -77 -35 -61 -1 31 23 103 31 91 4 -7
6 -20 4 -30z m65 -34 c0 -12 -19 -12 -23 0 -4 9 -1 12 9 8 7 -3 14 -7 14 -8z"/>
<path d="M11 520 c-7 -43 -10 -83 -6 -89 11 -18 35 -12 35 8 0 11 4 22 8 25 5
3 9 30 10 60 1 44 -2 58 -17 65 -16 9 -19 2 -30 -69z"/>
<path d="M700 280 c0 -11 4 -20 8 -20 4 0 8 9 8 20 0 11 -4 20 -8 20 -4 0 -8
-9 -8 -20z"/>
<path d="M730 280 c0 -11 4 -20 8 -20 4 0 8 9 9 20 1 11 -2 20 -8 20 -5 0 -9
-9 -9 -20z"/>
<path d="M761 284 c0 -12 6 -24 14 -28 11 -4 15 2 14 22 0 24 -1 24 -8 7 l-8
-20 -5 20 c-5 19 -6 19 -7 -1z"/>
<path d="M802 280 c0 -14 2 -19 5 -12 2 6 2 18 0 25 -3 6 -5 1 -5 -13z"/>
<path d="M820 280 c0 -13 7 -20 20 -20 19 0 19 1 3 20 -10 11 -19 20 -20 20
-2 0 -3 -9 -3 -20z"/>
<path d="M860 293 c0 -4 5 -15 10 -23 8 -13 10 -13 10 2 0 9 -4 20 -10 23 -5
3 -10 3 -10 -2z"/>
<path d="M890 281 c0 -12 5 -21 10 -21 6 0 10 6 10 14 0 8 -4 18 -10 21 -5 3
-10 -3 -10 -14z"/>
<path d="M920 278 c0 -10 7 -18 15 -18 8 0 15 8 15 18 0 10 -7 19 -15 19 -8 0
-15 -9 -15 -19z"/>
<path d="M961 274 c0 -11 3 -14 6 -6 3 7 2 16 -1 19 -3 4 -6 -2 -5 -13z"/>
<path d="M699 227 c6 -8 8 -17 4 -20 -13 -14 29 -6 52 9 14 9 25 12 25 6 0 -6
-6 -13 -12 -15 -8 -3 -6 -6 5 -6 10 -1 17 6 17 17 0 14 -8 19 -30 19 -16 0
-27 -4 -24 -8 2 -4 0 -10 -6 -14 -5 -3 -10 1 -10 9 0 9 -7 16 -16 16 -13 0
-14 -3 -5 -13z"/>
<path d="M800 220 c0 -11 4 -20 9 -20 6 0 9 9 8 20 -1 11 -5 20 -9 20 -4 0 -8
-9 -8 -20z"/>
<path d="M830 221 c0 -12 5 -21 10 -21 6 0 10 6 10 14 0 8 -4 18 -10 21 -5 3
-10 -3 -10 -14z"/>
<path d="M867 220 c3 -11 7 -20 9 -20 2 0 4 9 4 20 0 11 -4 20 -9 20 -5 0 -7
-9 -4 -20z"/>
<path d="M890 218 c0 -10 6 -18 14 -18 8 0 14 8 13 18 0 10 -7 19 -14 19 -7 0
-13 -9 -13 -19z"/>
</g>
</svg>
